<?xml version="1.0" encoding="UTF-8"?>
<!DOCTYPE svg PUBLIC "-//W3C//DTD SVG 1.1//EN" "http://www.w3.org/Graphics/SVG/1.1/DTD/svg11.dtd">
<svg xmlns="http://www.w3.org/2000/svg" version="1.1" width="512px" height="512px" style="shape-rendering:geometricPrecision; text-rendering:geometricPrecision; image-rendering:optimizeQuality; fill-rule:evenodd; clip-rule:evenodd" xmlns:xlink="http://www.w3.org/1999/xlink">
<g><path style="opacity:0.98" fill="#a9cdf6" d="M 454.5,80.5 C 436.167,80.5 417.833,80.5 399.5,80.5C 284.793,80.1707 170.126,80.504 55.5,81.5C 55.6107,80.8826 55.944,80.3826 56.5,80C 189.334,79.1673 322.001,79.334 454.5,80.5 Z"/></g>
<g><path style="opacity:1" fill="#e2f3fe" d="M 399.5,80.5 C 397.339,102.133 393.673,123.466 388.5,144.5C 273.495,145.165 158.828,144.498 44.5,142.5C 47.0062,123.795 49.8396,105.128 53,86.5C 53.0995,84.3474 53.9328,82.6808 55.5,81.5C 170.126,80.504 284.793,80.1707 399.5,80.5 Z"/></g>
<g><path style="opacity:1" fill="#bcdef4" d="M 399.5,80.5 C 417.833,80.5 436.167,80.5 454.5,80.5C 456.975,81.6874 457.975,83.6874 457.5,86.5C 455.113,105.876 452.446,125.209 449.5,144.5C 429.167,144.5 408.833,144.5 388.5,144.5C 393.673,123.466 397.339,102.133 399.5,80.5 Z"/></g>
<g><path style="opacity:1" fill="#364ec6" d="M 457.5,86.5 C 460.461,100.939 462.794,115.606 464.5,130.5C 463.732,131.263 463.232,132.263 463,133.5C 448.783,232.851 434.617,332.184 420.5,431.5C 415.5,431.5 410.5,431.5 405.5,431.5C 409.118,426.945 410.951,421.611 411,415.5C 423.512,325.429 436.346,235.429 449.5,145.5C 449.5,145.167 449.5,144.833 449.5,144.5C 452.446,125.209 455.113,105.876 457.5,86.5 Z"/></g>
<g><path style="opacity:0.992" fill="#4b5fe0" d="M 464.5,130.5 C 480.074,226.181 495.74,321.848 511.5,417.5C 511.5,421.167 511.5,424.833 511.5,428.5C 510.373,429.122 509.373,429.955 508.5,431C 479.169,431.5 449.835,431.667 420.5,431.5C 434.617,332.184 448.783,232.851 463,133.5C 463.232,132.263 463.732,131.263 464.5,130.5 Z"/></g>
<g><path style="opacity:1" fill="#b5dcfc" d="M 44.5,142.5 C 158.828,144.498 273.495,145.165 388.5,144.5C 408.833,144.5 429.167,144.5 449.5,144.5C 449.5,144.833 449.5,145.167 449.5,145.5C 429.167,145.5 408.833,145.5 388.5,145.5C 273.5,145.5 158.5,145.5 43.5,145.5C 43.2627,144.209 43.596,143.209 44.5,142.5 Z"/></g>
<g><path style="opacity:0.999" fill="#43a3f8" d="M 43.5,145.5 C 158.5,145.5 273.5,145.5 388.5,145.5C 377.198,195.42 358.198,242.086 331.5,285.5C 325.068,283.463 318.402,282.963 311.5,284C 306.395,288.549 306.395,293.216 311.5,298C 315.486,298.499 319.486,298.666 323.5,298.5C 317.89,307.442 311.89,316.109 305.5,324.5C 304.167,326.167 302.833,327.833 301.5,329.5C 290.469,341.197 279.802,353.197 269.5,365.5C 268.518,364.859 267.518,364.193 266.5,363.5C 261.035,364.124 255.702,364.79 250.5,365.5C 246.917,366.422 245.25,368.756 245.5,372.5C 245.546,376.207 247.213,378.873 250.5,380.5C 226.215,399.992 199.882,416.492 171.5,430C 148.33,430.168 125.33,430.668 102.5,431.5C 69.165,431.667 35.8317,431.5 2.5,431C 1.62656,429.955 0.626561,429.122 -0.5,428.5C -0.5,424.833 -0.5,421.167 -0.5,417.5C 14.5781,327.028 29.2447,236.361 43.5,145.5 Z"/></g>
<g><path style="opacity:1" fill="#1785fa" d="M 388.5,145.5 C 408.833,145.5 429.167,145.5 449.5,145.5C 436.346,235.429 423.512,325.429 411,415.5C 410.951,421.611 409.118,426.945 405.5,431.5C 304.5,431.5 203.5,431.5 102.5,431.5C 125.33,430.668 148.33,430.168 171.5,430C 199.882,416.492 226.215,399.992 250.5,380.5C 255.511,380.666 260.511,380.499 265.5,380C 267.384,378.951 268.718,377.451 269.5,375.5C 270.59,372.319 270.59,368.985 269.5,365.5C 279.802,353.197 290.469,341.197 301.5,329.5C 300.943,333.888 302.61,337.055 306.5,339C 311.167,339.667 315.833,339.667 320.5,339C 326.843,336.383 328.176,332.05 324.5,326C 318.371,323.285 312.037,322.785 305.5,324.5C 311.89,316.109 317.89,307.442 323.5,298.5C 331.825,297.817 334.492,293.484 331.5,285.5C 358.198,242.086 377.198,195.42 388.5,145.5 Z"/></g>
<g><path style="opacity:1" fill="#baddf4" d="M 84.5,186.5 C 101.17,186.333 117.837,186.5 134.5,187C 137.759,188.25 139.425,190.583 139.5,194C 138.206,198.049 137.373,202.215 137,206.5C 136.535,207.931 135.701,209.097 134.5,210C 116.833,210.667 99.1667,210.667 81.5,210C 79.4076,208.147 78.4076,205.814 78.5,203C 79.041,199.172 79.541,195.339 80,191.5C 81.025,189.313 82.525,187.646 84.5,186.5 Z"/></g>
<g><path style="opacity:1" fill="#f94082" d="M 167.5,242.5 C 173.262,242.149 178.928,242.649 184.5,244C 187.394,246.909 188.227,250.409 187,254.5C 186.097,255.701 184.931,256.535 183.5,257C 177.833,257.667 172.167,257.667 166.5,257C 160.876,251.689 161.209,246.856 167.5,242.5 Z"/></g>
<g><path style="opacity:1" fill="#e0f2fe" d="M 217.5,242.5 C 223.621,242.09 229.621,242.59 235.5,244C 239.451,248.573 239.117,252.907 234.5,257C 228.056,257.915 221.723,257.581 215.5,256C 212.397,250.886 213.064,246.386 217.5,242.5 Z"/></g>
<g><path style="opacity:1" fill="#e0f2fe" d="M 267.5,242.5 C 273.621,242.09 279.621,242.59 285.5,244C 289.689,248.678 289.356,253.011 284.5,257C 278.056,257.915 271.723,257.581 265.5,256C 262.397,250.886 263.064,246.386 267.5,242.5 Z"/></g>
<g><path style="opacity:1" fill="#e0f2fe" d="M 318.5,242.5 C 324.262,242.149 329.928,242.649 335.5,244C 338.886,247.373 339.386,251.206 337,255.5C 336.25,256.126 335.416,256.626 334.5,257C 328.833,257.667 323.167,257.667 317.5,257C 311.954,251.676 312.288,246.843 318.5,242.5 Z"/></g>
<g><path style="opacity:1" fill="#b9ddf4" d="M 368.5,242.5 C 373.844,242.334 379.177,242.501 384.5,243C 388.277,245.911 389.444,249.744 388,254.5C 387.097,255.701 385.931,256.535 384.5,257C 378.833,257.667 373.167,257.667 367.5,257C 362.068,251.761 362.401,246.928 368.5,242.5 Z"/></g>
<g><path style="opacity:1" fill="#dff2fe" d="M 79.5,253.5 C 85.8143,252.988 89.1476,255.822 89.5,262C 88.0535,271.179 86.5535,280.346 85,289.5C 81.0424,294.436 76.7091,294.769 72,290.5C 70.9944,288.466 70.4944,286.3 70.5,284C 71.5144,275.414 73.0144,266.914 75,258.5C 76.025,256.313 77.525,254.646 79.5,253.5 Z"/></g>
<g><path style="opacity:1" fill="#dff2fe" d="M 99.5,253.5 C 105.574,252.919 108.908,255.586 109.5,261.5C 108.398,270.178 107.231,278.845 106,287.5C 102.536,294.188 97.869,295.188 92,290.5C 91.0153,288.634 90.5153,286.634 90.5,284.5C 91.8006,275.023 93.6339,265.69 96,256.5C 97.1451,255.364 98.3117,254.364 99.5,253.5 Z"/></g>
<g><path style="opacity:1" fill="#fa3f82" d="M 160.5,283.5 C 166.176,283.334 171.843,283.501 177.5,284C 182.833,288.667 182.833,293.333 177.5,298C 171.388,298.909 165.388,298.576 159.5,297C 155.185,292.096 155.519,287.596 160.5,283.5 Z"/></g>
<g><path style="opacity:1" fill="#dff2fe" d="M 211.5,283.5 C 216.844,283.334 222.177,283.501 227.5,284C 234.167,288.667 234.167,293.333 227.5,298C 222.167,298.667 216.833,298.667 211.5,298C 204.885,293.084 204.885,288.251 211.5,283.5 Z"/></g>
<g><path style="opacity:1" fill="#e0f2fe" d="M 261.5,283.5 C 267.176,283.334 272.843,283.501 278.5,284C 282.212,286.602 283.378,290.102 282,294.5C 280.681,296.487 278.848,297.654 276.5,298C 271.5,298.667 266.5,298.667 261.5,298C 256.235,293.076 256.235,288.242 261.5,283.5 Z"/></g>
<g><path style="opacity:1" fill="#dcf0fd" d="M 331.5,285.5 C 334.492,293.484 331.825,297.817 323.5,298.5C 319.486,298.666 315.486,298.499 311.5,298C 306.395,293.216 306.395,288.549 311.5,284C 318.402,282.963 325.068,283.463 331.5,285.5 Z"/></g>
<g><path style="opacity:1" fill="#b9dcf4" d="M 361.5,283.5 C 367.952,283.084 374.285,283.584 380.5,285C 384.667,290.015 384,294.348 378.5,298C 372.388,298.909 366.388,298.576 360.5,297C 356.419,292.218 356.752,287.718 361.5,283.5 Z"/></g>
<g><path style="opacity:1" fill="#ddf1fe" d="M 60.5,304.5 C 75.837,304.333 91.1703,304.5 106.5,305C 112.341,306.176 114.507,309.676 113,315.5C 112.07,317.552 110.57,319.052 108.5,320C 92.5,320.667 76.5,320.667 60.5,320C 53.8753,314.754 53.8753,309.587 60.5,304.5 Z"/></g>
<g><path style="opacity:1" fill="#f64284" d="M 156.5,323.5 C 161.998,323.068 167.331,323.735 172.5,325.5C 176.876,330.743 176.21,335.243 170.5,339C 164.719,339.903 159.053,339.57 153.5,338C 148.876,331.891 149.876,327.058 156.5,323.5 Z"/></g>
<g><path style="opacity:1" fill="#ddf1fe" d="M 206.5,323.5 C 211.93,323.161 217.264,323.661 222.5,325C 225.394,327.909 226.227,331.409 225,335.5C 223.681,337.487 221.848,338.654 219.5,339C 214.833,339.667 210.167,339.667 205.5,339C 198.548,333.286 198.881,328.12 206.5,323.5 Z"/></g>
<g><path style="opacity:1" fill="#ddf0fe" d="M 256.5,323.5 C 262.328,323.05 267.995,323.716 273.5,325.5C 277.876,330.743 277.21,335.243 271.5,339C 266.167,339.667 260.833,339.667 255.5,339C 250.034,333.434 250.368,328.267 256.5,323.5 Z"/></g>
<g><path style="opacity:1" fill="#b8dcf4" d="M 301.5,329.5 C 302.833,327.833 304.167,326.167 305.5,324.5C 312.037,322.785 318.371,323.285 324.5,326C 328.176,332.05 326.843,336.383 320.5,339C 315.833,339.667 311.167,339.667 306.5,339C 302.61,337.055 300.943,333.888 301.5,329.5 Z"/></g>
<g><path style="opacity:1" fill="#b6dbf4" d="M 357.5,323.5 C 362.93,323.161 368.264,323.661 373.5,325C 378.854,329.944 378.521,334.611 372.5,339C 367.167,339.667 361.833,339.667 356.5,339C 349.712,333.333 350.046,328.166 357.5,323.5 Z"/></g>
<g><path style="opacity:1" fill="#dff2fe" d="M 65.5,336.5 C 72.0666,335.097 75.7333,337.597 76.5,344C 75.186,353.198 73.686,362.364 72,371.5C 68.4546,377.011 64.1212,377.677 59,373.5C 57.9944,371.466 57.4944,369.3 57.5,367C 58.5733,359.154 59.7399,351.32 61,343.5C 61.9042,340.767 63.4042,338.433 65.5,336.5 Z"/></g>
<g><path style="opacity:1" fill="#dff2fe" d="M 85.5,336.5 C 92.6146,334.629 96.2813,337.296 96.5,344.5C 95.3976,353.178 94.2309,361.845 93,370.5C 89.1537,377.466 84.4871,378.133 79,372.5C 78.0419,370.801 77.5419,368.967 77.5,367C 78.7963,359.519 79.963,352.019 81,344.5C 81.7384,341.352 83.2384,338.685 85.5,336.5 Z"/></g>
<g><path style="opacity:1" fill="#bbddf5" d="M 269.5,365.5 C 270.59,368.985 270.59,372.319 269.5,375.5C 269.649,374.448 269.483,373.448 269,372.5C 268.167,374 267,375.167 265.5,376C 260.833,376.667 256.167,376.667 251.5,376C 255.466,373.036 259.133,369.703 262.5,366C 258.514,365.501 254.514,365.334 250.5,365.5C 255.702,364.79 261.035,364.124 266.5,363.5C 267.518,364.193 268.518,364.859 269.5,365.5 Z"/></g>
<g><path style="opacity:1" fill="#f64284" d="M 149.5,364.5 C 154.93,364.161 160.264,364.661 165.5,366C 171.474,372.157 170.474,376.824 162.5,380C 157.382,380.888 152.382,380.555 147.5,379C 143.054,373.397 143.721,368.564 149.5,364.5 Z"/></g>
<g><path style="opacity:1" fill="#ddf0fe" d="M 199.5,364.5 C 205.262,364.149 210.928,364.649 216.5,366C 219.394,368.909 220.227,372.409 219,376.5C 217.681,378.487 215.848,379.654 213.5,380C 208.833,380.667 204.167,380.667 199.5,380C 192.876,374.885 192.876,369.718 199.5,364.5 Z"/></g>
<g><path style="opacity:1" fill="#ddf0fe" d="M 250.5,365.5 C 254.514,365.334 258.514,365.501 262.5,366C 259.133,369.703 255.466,373.036 251.5,376C 256.167,376.667 260.833,376.667 265.5,376C 267,375.167 268.167,374 269,372.5C 269.483,373.448 269.649,374.448 269.5,375.5C 268.718,377.451 267.384,378.951 265.5,380C 260.511,380.499 255.511,380.666 250.5,380.5C 247.213,378.873 245.546,376.207 245.5,372.5C 245.25,368.756 246.917,366.422 250.5,365.5 Z"/></g>
<g><path style="opacity:1" fill="#b7dbf4" d="M 300.5,364.5 C 306.262,364.149 311.928,364.649 317.5,366C 320.394,368.909 321.227,372.409 320,376.5C 318.681,378.487 316.848,379.654 314.5,380C 309.833,380.667 305.167,380.667 300.5,380C 295.465,376.987 294.298,372.82 297,367.5C 298.518,366.837 299.685,365.837 300.5,364.5 Z"/></g>
<g><path style="opacity:1" fill="#b7dbf4" d="M 351.5,364.5 C 357.328,364.05 362.995,364.716 368.5,366.5C 372.885,371.696 372.218,376.196 366.5,380C 361.167,380.667 355.833,380.667 350.5,380C 344.939,374.353 345.272,369.186 351.5,364.5 Z"/></g>
</svg>
